<svg xmlns="http://www.w3.org/2000/svg" viewBox="0 0 64 64" role="img" aria-labelledby="title">
  <title id="title">Movable Do Key Player</title>
  <defs>
    <linearGradient id="bg" x1="8" y1="4" x2="56" y2="60" gradientUnits="userSpaceOnUse">
      <stop offset="0" stop-color="#102b27" />
      <stop offset="0.5" stop-color="#1a7f64" />
      <stop offset="1" stop-color="#b9472d" />
    </linearGradient>
    <linearGradient id="shine" x1="14" y1="8" x2="54" y2="54" gradientUnits="userSpaceOnUse">
      <stop offset="0" stop-color="#ffffff" stop-opacity="0.34" />
      <stop offset="1" stop-color="#ffffff" stop-opacity="0" />
    </linearGradient>
    <filter id="shadow" x="-20%" y="-20%" width="140%" height="150%">
      <feDropShadow dx="0" dy="3" stdDeviation="2" flood-color="#071a17" flood-opacity="0.38" />
    </filter>
  </defs>

  <rect width="64" height="64" rx="15" fill="url(#bg)" />
  <path d="M10 18c8-10 24-14 40-6 5 2 8 6 10 10V0H0v35c2-6 5-12 10-17Z" fill="url(#shine)" />

  <g filter="url(#shadow)">
    <path
      d="M15 39c6-9 11-13 17-13 8 0 9-10 18-10"
      fill="none"
      stroke="#fff8e8"
      stroke-width="4"
      stroke-linecap="round"
      stroke-linejoin="round"
    />
    <circle cx="15" cy="39" r="4" fill="#fff8e8" />
    <circle cx="32" cy="26" r="4" fill="#fff8e8" />
    <circle cx="50" cy="16" r="4" fill="#fff8e8" />
  </g>

  <g transform="translate(10 38)" filter="url(#shadow)">
    <rect width="44" height="16" rx="4" fill="#121719" />
    <rect x="3" y="3" width="7" height="10" rx="1.5" fill="#fffaf1" />
    <rect x="11" y="3" width="7" height="10" rx="1.5" fill="#fffaf1" />
    <rect x="19" y="3" width="7" height="10" rx="1.5" fill="#fffaf1" />
    <rect x="27" y="3" width="7" height="10" rx="1.5" fill="#fffaf1" />
    <rect x="35" y="3" width="6" height="10" rx="1.5" fill="#fffaf1" />
    <rect x="8" y="3" width="4" height="7" rx="1" fill="#101416" />
    <rect x="17" y="3" width="4" height="7" rx="1" fill="#101416" />
    <rect x="32" y="3" width="4" height="7" rx="1" fill="#101416" />
  </g>
</svg>
